<svg width="28" height="28" viewBox="0 0 28 28" fill="none" xmlns="http://www.w3.org/2000/svg">
<path d="M13.8843 10.8254V7.01589H9.91904V4.47621H13.8843V0.666687H16.5279V4.47621H20.4932V7.01589H16.5279V10.8254H13.8843ZM8.59727 27.3334C7.8703 27.3334 7.24819 27.0849 6.73094 26.588C6.2128 26.0902 5.95374 25.4921 5.95374 24.7937C5.95374 24.0953 6.2128 23.4972 6.73094 22.9994C7.24819 22.5025 7.8703 22.254 8.59727 22.254C9.32424 22.254 9.94636 22.5025 10.4636 22.9994C10.9817 23.4972 11.2408 24.0953 11.2408 24.7937C11.2408 25.4921 10.9817 26.0902 10.4636 26.588C9.94636 27.0849 9.32424 27.3334 8.59727 27.3334ZM21.815 27.3334C21.088 27.3334 20.4659 27.0849 19.9486 26.588C19.4305 26.0902 19.1714 25.4921 19.1714 24.7937C19.1714 24.0953 19.4305 23.4972 19.9486 22.9994C20.4659 22.5025 21.088 22.254 21.815 22.254C22.5419 22.254 23.1645 22.5025 23.6826 22.9994C24.1999 23.4972 24.4585 24.0953 24.4585 24.7937C24.4585 25.4921 24.1999 26.0902 23.6826 26.588C23.1645 27.0849 22.5419 27.3334 21.815 27.3334ZM8.59727 20.9841C7.60595 20.9841 6.84593 20.5659 6.31722 19.7295C5.78852 18.894 5.7775 18.0635 6.28418 17.2381L8.06856 14.127L3.3102 4.47621H0.666664V1.93653H4.99545L10.613 13.3651H19.8984L25.0202 4.47621L27.3333 5.68256L22.2115 14.5714C21.9692 14.9947 21.6497 15.3228 21.2532 15.5556C20.8567 15.7884 20.4051 15.9048 19.8984 15.9048H10.0512L8.59727 18.4445H24.4585V20.9841H8.59727Z" fill="white"/>
</svg>
